# xmcd
#
# Track frame offsets: 
#        150
#        21734
#        37606
#        55829
#        74928
#        87763
#        106852
#        123414
#        138272
#        155118
#
# Disc length: 2415 seconds
#
# Revision: 0
# Processed by: cddbd v1.5.2PL0 Copyright (c) Steve Scherf et al.
# Submitted via: ExactAudioCopy v0.99pb3
#
DISCID=89096d0a
DTITLE=Jon Langford and Kat Ex - KATJONBAND
DYEAR=2009
DGENRE=Alt. Rock
TTITLE0=Do You?
TTITLE1=Albion
TTITLE2=Limbo
TTITLE3=Machine Gun and The Ugly Doll
TTITLE4=Conquered
TTITLE5=Bad Apples
TTITLE6=Crackheads Beware
TTITLE7=Moonscape Dare
TTITLE8=Hey You Don't Love Me
TTITLE9=Red Flag
EXTD=
EXTT0=
EXTT1=
EXTT2=
EXTT3=
EXTT4=
EXTT5=
EXTT6=
EXTT7=
EXTT8=
EXTT9=
PLAYORDER=
